<svg xmlns="http://www.w3.org/2000/svg" xmlns:xlink="http://www.w3.org/1999/xlink" width="1080" zoomAndPan="magnify" viewBox="0 0 810 809.999993" height="1080" preserveAspectRatio="xMidYMid meet" version="1.2"><defs/><g id="f3a9bcc0de"><g style="fill:#000000;fill-opacity:1;"><g transform="translate(65.20333, 449.627136)"><path style="stroke:none" d="M 40.765625 -88.125 C 44.765625 -88.125 48.394531 -87.507812 51.65625 -86.28125 C 54.914062 -85.0625 57.707031 -83.3125 60.03125 -81.03125 C 62.363281 -78.75 64.160156 -76.035156 65.421875 -72.890625 C 66.691406 -69.753906 67.328125 -66.265625 67.328125 -62.421875 C 67.328125 -58.585938 66.671875 -55.097656 65.359375 -51.953125 C 64.054688 -48.816406 62.238281 -46.101562 59.90625 -43.8125 C 57.582031 -41.53125 54.789062 -39.773438 51.53125 -38.546875 C 48.269531 -37.328125 44.679688 -36.71875 40.765625 -36.71875 L 22.03125 -36.71875 L 22.03125 0 L 11.015625 0 L 11.015625 -88.125 Z M 22.03125 -78.34375 L 22.03125 -46.515625 L 40.765625 -46.515625 C 45.328125 -46.515625 48.992188 -47.960938 51.765625 -50.859375 C 54.546875 -53.753906 55.9375 -57.609375 55.9375 -62.421875 C 55.9375 -67.242188 54.546875 -71.101562 51.765625 -74 C 48.992188 -76.894531 45.328125 -78.34375 40.765625 -78.34375 Z M 22.03125 -78.34375 "/></g></g><g style="fill:#000000;fill-opacity:1;"><g transform="translate(140.970573, 449.627136)"><path style="stroke:none" d="M 39.171875 -88.125 C 43.171875 -88.125 46.800781 -87.507812 50.0625 -86.28125 C 53.320312 -85.0625 56.113281 -83.3125 58.4375 -81.03125 C 60.769531 -78.75 62.566406 -76.035156 63.828125 -72.890625 C 65.097656 -69.753906 65.734375 -66.265625 65.734375 -62.421875 C 65.734375 -56.304688 64.160156 -51.101562 61.015625 -46.8125 C 57.878906 -42.53125 53.617188 -39.578125 48.234375 -37.953125 L 66.953125 0 L 53.984375 0 L 36.84375 -36.71875 L 22.03125 -36.71875 L 22.03125 0 L 11.015625 0 L 11.015625 -88.125 Z M 22.03125 -46.515625 L 39.171875 -46.515625 C 43.816406 -46.515625 47.503906 -47.960938 50.234375 -50.859375 C 52.972656 -53.753906 54.34375 -57.609375 54.34375 -62.421875 C 54.34375 -67.242188 52.957031 -71.101562 50.1875 -74 C 47.414062 -76.894531 43.742188 -78.34375 39.171875 -78.34375 L 22.03125 -78.34375 Z M 22.03125 -46.515625 "/></g></g><g style="fill:#000000;fill-opacity:1;"><g transform="translate(216.737815, 449.627136)"><path style="stroke:none" d="M 5.390625 0 L 29.375 -88.125 L 44.796875 -88.125 L 68.0625 0 L 56.3125 0 L 50.1875 -24.84375 L 23.140625 -24.84375 L 16.890625 0 Z M 25.453125 -34.03125 L 47.984375 -34.03125 L 39.421875 -68.921875 C 39.003906 -70.628906 38.632812 -72.195312 38.3125 -73.625 C 37.988281 -75.050781 37.742188 -76.335938 37.578125 -77.484375 C 37.410156 -78.703125 37.25 -79.800781 37.09375 -80.78125 L 36.59375 -80.78125 C 36.4375 -79.800781 36.234375 -78.703125 35.984375 -77.484375 C 35.828125 -76.335938 35.582031 -75.050781 35.25 -73.625 C 34.925781 -72.195312 34.5625 -70.628906 34.15625 -68.921875 Z M 25.453125 -34.03125 "/></g></g><g style="fill:#000000;fill-opacity:1;"><g transform="translate(292.505046, 449.627136)"><path style="stroke:none" d="M 35.375 -9.796875 C 40.519531 -9.796875 44.660156 -11.363281 47.796875 -14.5 C 50.941406 -17.644531 52.515625 -21.785156 52.515625 -26.921875 L 52.515625 -61.328125 C 52.515625 -66.460938 50.941406 -70.582031 47.796875 -73.6875 C 44.660156 -76.789062 40.519531 -78.34375 35.375 -78.34375 L 21.78125 -78.34375 L 21.78125 -9.796875 Z M 10.765625 0 L 10.765625 -88.125 L 35.375 -88.125 C 39.613281 -88.125 43.46875 -87.472656 46.9375 -86.171875 C 50.40625 -84.867188 53.382812 -83.050781 55.875 -80.71875 C 58.363281 -78.394531 60.28125 -75.582031 61.625 -72.28125 C 62.976562 -68.976562 63.65625 -65.328125 63.65625 -61.328125 L 63.65625 -26.921875 C 63.65625 -22.929688 62.976562 -19.257812 61.625 -15.90625 C 60.28125 -12.5625 58.363281 -9.726562 55.875 -7.40625 C 53.382812 -5.082031 50.40625 -3.265625 46.9375 -1.953125 C 43.46875 -0.648438 39.613281 0 35.375 0 Z M 10.765625 0 "/></g></g><g style="fill:#000000;fill-opacity:1;"><g transform="translate(368.2723, 449.627136)"><path style="stroke:none" d="M 20.8125 -25.09375 C 20.8125 -20.03125 22.238281 -16.007812 25.09375 -13.03125 C 27.945312 -10.050781 31.820312 -8.5625 36.71875 -8.5625 C 41.613281 -8.5625 45.488281 -10.050781 48.34375 -13.03125 C 51.207031 -16.007812 52.640625 -20.03125 52.640625 -25.09375 L 52.640625 -63.046875 C 52.640625 -68.097656 51.207031 -72.113281 48.34375 -75.09375 C 45.488281 -78.070312 41.613281 -79.5625 36.71875 -79.5625 C 31.820312 -79.5625 27.945312 -78.070312 25.09375 -75.09375 C 22.238281 -72.113281 20.8125 -68.097656 20.8125 -63.046875 Z M 9.796875 -63.046875 C 9.796875 -67.035156 10.425781 -70.660156 11.6875 -73.921875 C 12.957031 -77.191406 14.753906 -79.96875 17.078125 -82.25 C 19.398438 -84.539062 22.210938 -86.296875 25.515625 -87.515625 C 28.828125 -88.742188 32.5625 -89.359375 36.71875 -89.359375 C 40.882812 -89.359375 44.617188 -88.742188 47.921875 -87.515625 C 51.222656 -86.296875 54.035156 -84.539062 56.359375 -82.25 C 58.691406 -79.96875 60.488281 -77.191406 61.75 -73.921875 C 63.019531 -70.660156 63.65625 -67.035156 63.65625 -63.046875 L 63.65625 -25.09375 C 63.65625 -21.09375 63.019531 -17.476562 61.75 -14.25 C 60.488281 -11.03125 58.691406 -8.28125 56.359375 -6 C 54.035156 -3.71875 51.203125 -1.941406 47.859375 -0.671875 C 44.515625 0.585938 40.800781 1.21875 36.71875 1.21875 C 32.5625 1.21875 28.828125 0.609375 25.515625 -0.609375 C 22.210938 -1.835938 19.398438 -3.59375 17.078125 -5.875 C 14.753906 -8.15625 12.957031 -10.925781 11.6875 -14.1875 C 10.425781 -17.457031 9.796875 -21.09375 9.796875 -25.09375 Z M 9.796875 -63.046875 "/></g></g><g style="fill:#000000;fill-opacity:1;"><g transform="translate(444.039554, 449.627136)"><path style="stroke:none" d="M 26.1875 -9.671875 C 26.1875 -12.847656 27.144531 -15.394531 29.0625 -17.3125 C 30.988281 -19.238281 33.539062 -20.203125 36.71875 -20.203125 C 39.90625 -20.203125 42.457031 -19.238281 44.375 -17.3125 C 46.289062 -15.394531 47.25 -12.847656 47.25 -9.671875 C 47.25 -6.410156 46.289062 -3.78125 44.375 -1.78125 C 42.457031 0.21875 39.90625 1.21875 36.71875 1.21875 C 33.539062 1.21875 30.988281 0.21875 29.0625 -1.78125 C 27.144531 -3.78125 26.1875 -6.410156 26.1875 -9.671875 Z M 26.1875 -9.671875 "/></g></g><g style="fill:#000000;fill-opacity:1;"><g transform="translate(519.806762, 449.627136)"><path style="stroke:none" d="M 9.796875 -42.234375 C 9.796875 -46.304688 10.34375 -49.972656 11.4375 -53.234375 C 12.539062 -56.503906 14.070312 -59.257812 16.03125 -61.5 C 17.988281 -63.75 20.351562 -65.484375 23.125 -66.703125 C 25.90625 -67.929688 29.007812 -68.546875 32.4375 -68.546875 C 37.414062 -68.546875 41.535156 -67.421875 44.796875 -65.171875 C 48.066406 -62.929688 50.226562 -59.769531 51.28125 -55.6875 L 52.265625 -55.6875 C 52.179688 -57.082031 52.097656 -58.472656 52.015625 -59.859375 C 51.859375 -61.078125 51.757812 -62.359375 51.71875 -63.703125 C 51.675781 -65.054688 51.65625 -66.265625 51.65625 -67.328125 L 51.65625 -89.359375 L 62.671875 -89.359375 L 62.671875 0 L 52.265625 0 L 52.265625 -11.625 L 51.28125 -11.625 C 50.226562 -7.550781 48.066406 -4.390625 44.796875 -2.140625 C 41.535156 0.0976562 37.414062 1.21875 32.4375 1.21875 C 29.007812 1.21875 25.90625 0.609375 23.125 -0.609375 C 20.351562 -1.835938 17.988281 -3.570312 16.03125 -5.8125 C 14.070312 -8.0625 12.539062 -10.816406 11.4375 -14.078125 C 10.34375 -17.335938 9.796875 -21.007812 9.796875 -25.09375 Z M 36.59375 -8.328125 C 41.164062 -8.328125 44.816406 -9.832031 47.546875 -12.84375 C 50.285156 -15.863281 51.65625 -19.945312 51.65625 -25.09375 L 51.65625 -42.234375 C 51.65625 -47.367188 50.285156 -51.445312 47.546875 -54.46875 C 44.816406 -57.488281 41.164062 -59 36.59375 -59 C 31.613281 -59 27.738281 -57.53125 24.96875 -54.59375 C 22.195312 -51.65625 20.8125 -47.535156 20.8125 -42.234375 L 20.8125 -25.09375 C 20.8125 -19.945312 22.21875 -15.863281 25.03125 -12.84375 C 27.84375 -9.832031 31.695312 -8.328125 36.59375 -8.328125 Z M 36.59375 -8.328125 "/></g></g><g style="fill:#000000;fill-opacity:1;"><g transform="translate(595.574015, 449.627136)"><path style="stroke:none" d="M 36.71875 1.21875 C 28.3125 1.21875 21.722656 -1.0625 16.953125 -5.625 C 12.179688 -10.195312 9.796875 -16.484375 9.796875 -24.484375 L 9.796875 -42.84375 C 9.796875 -50.84375 12.179688 -57.125 16.953125 -61.6875 C 21.722656 -66.257812 28.3125 -68.546875 36.71875 -68.546875 C 45.125 -68.546875 51.710938 -66.257812 56.484375 -61.6875 C 61.265625 -57.125 63.65625 -50.84375 63.65625 -42.84375 L 63.65625 -30.484375 L 20.8125 -30.484375 L 20.8125 -25.09375 C 20.8125 -19.945312 22.21875 -15.90625 25.03125 -12.96875 C 27.84375 -10.03125 31.738281 -8.5625 36.71875 -8.5625 C 40.394531 -8.5625 43.578125 -9.132812 46.265625 -10.28125 C 48.960938 -11.425781 50.960938 -13.097656 52.265625 -15.296875 L 63.28125 -15.296875 C 61.894531 -10.160156 58.8125 -6.125 54.03125 -3.1875 C 49.257812 -0.25 43.488281 1.21875 36.71875 1.21875 Z M 52.640625 -39.65625 L 52.640625 -42.84375 C 52.640625 -47.90625 51.25 -51.820312 48.46875 -54.59375 C 45.695312 -57.363281 41.78125 -58.75 36.71875 -58.75 C 31.65625 -58.75 27.738281 -57.363281 24.96875 -54.59375 C 22.195312 -51.820312 20.8125 -47.90625 20.8125 -42.84375 L 20.8125 -39.65625 Z M 52.640625 -39.65625 "/></g></g><g style="fill:#000000;fill-opacity:1;"><g transform="translate(671.341269, 449.627136)"><path style="stroke:none" d="M 6.125 -67.328125 L 17.75 -67.328125 L 34.15625 -19.703125 C 34.800781 -17.828125 35.285156 -16.175781 35.609375 -14.75 C 35.941406 -13.320312 36.191406 -12.117188 36.359375 -11.140625 C 36.515625 -9.910156 36.59375 -8.847656 36.59375 -7.953125 L 37.703125 -7.953125 C 37.617188 -8.847656 37.660156 -9.910156 37.828125 -11.140625 C 37.984375 -12.117188 38.179688 -13.320312 38.421875 -14.75 C 38.671875 -16.175781 39.125 -17.828125 39.78125 -19.703125 L 55.328125 -67.328125 L 67.328125 -67.328125 L 43.203125 0 L 30.71875 0 Z M 6.125 -67.328125 "/></g></g></g></svg>